<?xml version="1.0" encoding="UTF-8" standalone="no"?>
<svg
   width="3901.0806"
   height="809.03174"
   viewBox="0 0 997.70135 206.90987"
   version="1.1"
   id="svg"
   xmlns="http://www.w3.org/2000/svg"
   xmlns:svg="http://www.w3.org/2000/svg">
  <g
     id="book"
     transform="matrix(2.4819787,0,0,2.4819787,-4124.9498,611.02674)">
    <path
       id="path0"
       d="m 1669.7664,-190.07191 c -3.4831,-6e-5 -6.3067,3.45812 -6.3067,7.72402 0,4.2659 2.5563,7.18954 6.3067,7.72402 l 46.9069,10.30393 42.1444,-23.718 250.6212,-0.28991"
       style="opacity:1;vector-effect:none;fill:none;fill-opacity:1;stroke:#333333;stroke-width:2.999;stroke-linecap:round;stroke-linejoin:round;stroke-miterlimit:4;stroke-dasharray:none;stroke-dashoffset:0;stroke-opacity:1" />
    <path
       id="path1"
       d="m 1669.7664,-205.51995 c -3.4831,-6e-5 -6.3067,3.45812 -6.3067,7.72402 0,4.2659 2.5563,7.18954 6.3067,7.72402 l 46.9069,10.30393 42.1444,-23.718"
       style="opacity:1;vector-effect:none;fill:none;fill-opacity:1;stroke:#333333;stroke-width:2.999;stroke-linecap:round;stroke-linejoin:round;stroke-miterlimit:4;stroke-dasharray:none;stroke-dashoffset:0;stroke-opacity:1" />
    <path
       id="path2"
       d="m 1669.7664,-220.96799 c -3.4831,-6e-5 -6.3067,3.45812 -6.3067,7.72402 0,4.2659 2.5563,7.18954 6.3067,7.72402 l 22.8809,5.02619 m 13.6936,3.00805 10.3324,2.26969 42.1444,-23.718"
       style="opacity:1;vector-effect:none;fill:none;fill-opacity:1;stroke:#333333;stroke-width:2.999;stroke-linecap:round;stroke-linejoin:round;stroke-miterlimit:4;stroke-dasharray:none;stroke-dashoffset:0;stroke-opacity:1" />
    <path
       transform="scale(0.26458333)"
       id="path3"
       d="m 6470.2148,-924.79688 -163.5797,89.64226 181.5797,38.94368 159.2852,-89.64258 z"
       style="opacity:1;vector-effect:none;fill:#333333;fill-opacity:1;stroke:#333333;stroke-width:11.3348;stroke-linecap:round;stroke-linejoin:round;stroke-miterlimit:4;stroke-dasharray:none;stroke-dashoffset:0;stroke-opacity:1" />
    <path
       id="path4"
       d="m 1715.1438,-235.60505 -10.863,6.14815 17.4451,3.83204 10.8628,-6.14815 z"
       style="opacity:1;vector-effect:none;fill:#f29d16;fill-opacity:1;stroke:#333333;stroke-width:1.11535;stroke-linecap:round;stroke-linejoin:round;stroke-miterlimit:4;stroke-dasharray:none;stroke-dashoffset:0;stroke-opacity:1" />
    <path
       id="path5"
       d="m 1696.2626,-208.44866 v 15.68601 l 3.4963,-2.17336 3.8743,4.25223 v -16.53646 z"
       style="fill:#f49f16;fill-opacity:1;fill-rule:evenodd;stroke:none;stroke-width:0.264583px;stroke-linecap:butt;stroke-linejoin:miter;stroke-opacity:1" />
    <text
       xml:space="preserve"
       transform="matrix(0.10636675,0,0,0.10636675,1647.0194,-245.70117)"
       id="text2"
       style="font-size:333.333px;white-space:pre;shape-inside:url(#rect2);display:inline;fill:#333333;fill-opacity:1"><tspan
         x="1059.3223"
         y="448.17817"
         id="tspan4"><tspan
           dx="0 0 0 0 0 0 0 0 0 0 0.00015258789 0 -0.00010681152"
           style="font-weight:bold;font-family:System-ui;-inkscape-font-specification:'System-ui Bold'"
           id="tspan3">Documentation</tspan></tspan></text>
    <text
      xml:space="preserve"
      transform="matrix(0.10636675,0,0,0.10636675,1647.0194,-245.70117)"
      id="text"
      style="font-size:200px;white-space:pre;shape-inside:url(#rect2);display:inline;fill:#333333;fill-opacity:1"><tspan
         x="2350.0"
         y="750.17817"
         id="tspan4"><tspan
           dx="0 0 0 0 0 0 0 0 0 0 0.00015258789 0 -0.00010681152"
           style="font-weight:bold;font-family:System-ui;-inkscape-font-specification:'System-ui Bold'"
           id="tspan3">Framework</tspan></tspan></text>
  </g>
</svg>
